<svg width="448" height="450" viewBox="0 0 448 450" fill="none" xmlns="http://www.w3.org/2000/svg">
<path d="M295 225L432.5 87.5C452.5 67.5 452.5 37.5 432.5 17.5C425 7.5 412.5 0 400 0C387.5 0 375 5 365 15L225 155L87.5 17.5C67.5 -2.50001 35 -2.50001 17.5 17.5C7.5 25 0 37.5 0 52.5C0 67.5 5 77.5 15 87.5L152.5 225L15 362.5C7.5 372.5 0 385 0 400C0 412.5 5 425 15 435C25 445 37.5 450 50 450C62.5 450 75 445 85 435L222.5 297.5L360 435C380 455 412.5 455 430 435C450 415 450 382.5 430 365L295 225Z" fill="black"/>
</svg>
