<svg width="15" height="16" viewBox="0 0 15 16" fill="none" xmlns="http://www.w3.org/2000/svg">
  <path fill-rule="evenodd" clip-rule="evenodd"
        d="M0.746441 6.41697L1.54551 4.40062L7.93191 10.787L2.94184 15.843C2.85683 15.9293 2.74765 15.9833 2.63111 15.9967C2.51458 16.0101 2.39715 15.9822 2.29691 15.9173C2.19667 15.8523 2.11918 15.7539 2.07638 15.6372C2.03358 15.5206 2.02784 15.3921 2.06005 15.2716L4.0032 7.99979H1.72764C1.55258 7.99885 1.38041 7.95196 1.22627 7.86323C1.07213 7.7745 0.940737 7.64664 0.843632 7.4909C0.746526 7.33516 0.686683 7.1563 0.669364 6.97004C0.652045 6.78378 0.677778 6.59582 0.744303 6.42269L0.746441 6.41697ZM2.72158 1.43298L1.52291 0.234315C1.21049 -0.0781049 0.703961 -0.0781049 0.391541 0.234315C0.0791217 0.546734 0.0791217 1.05327 0.391541 1.36569L13.1915 14.1657C13.504 14.4781 14.0105 14.4781 14.3229 14.1657C14.6353 13.8533 14.6353 13.3467 14.3229 13.0343L9.99017 8.70157L12.1232 6.5404L12.1264 6.53697C12.2788 6.37988 12.3843 6.17792 12.4292 5.95669C12.4742 5.73547 12.4567 5.50495 12.3789 5.29437C12.3012 5.08379 12.1667 4.90265 11.9925 4.77392C11.8184 4.64519 11.6123 4.57467 11.4006 4.57131H8.2497L9.99832 0.827406C10.0391 0.740463 10.0584 0.643838 10.0544 0.54668C10.0505 0.449522 10.0235 0.355046 9.97582 0.272195C9.9282 0.189345 9.86158 0.120861 9.78229 0.0732292C9.70299 0.025597 9.61364 0.000391864 9.52268 0H3.64407H3.643C3.53809 9.14131e-05 3.43554 0.0331911 3.34811 0.0951736C3.26068 0.157156 3.19224 0.24528 3.15133 0.348562L2.72158 1.43298Z"
        fill="#ABB6C6"/>
</svg>